<svg xmlns="http://www.w3.org/2000/svg" viewBox="0 0 100 32">
  <rect width="100" height="32" rx="4" fill="#111"/>
  <!-- C -->
  <path d="M14 7 C8 7 4 10.5 4 16 C4 21.5 8 25 14 25 L18 25 L18 21 L14 21 C10.5 21 8.5 18.8 8.5 16 C8.5 13.2 10.5 11 14 11 L18 11 L18 7 Z" fill="white"/>
  <!-- E -->
  <path d="M21 7 L21 25 L34 25 L34 21 L25 21 L25 18 L33 18 L33 14 L25 14 L25 11 L34 11 L34 7 Z" fill="white"/>
  <!-- L -->
  <path d="M37 7 L37 25 L50 25 L50 21 L41 21 L41 7 Z" fill="white"/>
  <!-- O -->
  <path d="M54 16 C54 10.5 58 7 63 7 C68 7 72 10.5 72 16 C72 21.5 68 25 63 25 C58 25 54 21.5 54 16 Z M58 16 C58 19.2 60.2 21 63 21 C65.8 21 68 19.2 68 16 C68 12.8 65.8 11 63 11 C60.2 11 58 12.8 58 16 Z" fill="white"/>
</svg>
